<?xml version="1.0" encoding="utf-8"?>
<!-- Generator: Adobe Illustrator 26.0.1, SVG Export Plug-In . SVG Version: 6.00 Build 0)  -->
<svg version="1.1" id="Layer_1" xmlns="http://www.w3.org/2000/svg" xmlns:xlink="http://www.w3.org/1999/xlink" x="0px" y="0px"
	 viewBox="0 0 1500 1500" style="enable-background:new 0 0 1500 1500;" xml:space="preserve">
<style type="text/css">
	.st0{fill:url(#SVGID_1_);}
	.st1{fill:url(#SVGID_00000080206583980075723780000000486741152016280748_);}
	.st2{fill:url(#SVGID_00000093144217679256312470000001871293479519158696_);}
	.st3{fill:url(#SVGID_00000114784486894346824970000017932886553081443006_);}
	.st4{fill:url(#SVGID_00000026874274226434941050000014088777032238710937_);}
</style>
<path d="M750,1500L750,1500C335.8,1500,0,1164.2,0,750v0C0,335.8,335.8,0,750,0h0c414.2,0,750,335.8,750,750v0
	C1500,1164.2,1164.2,1500,750,1500z"/>
<g>
	<linearGradient id="SVGID_1_" gradientUnits="userSpaceOnUse" x1="435.6429" y1="1064.3524" x2="1064.3512" y2="435.6441">
		<stop  offset="1.385225e-07" style="stop-color:#133000"/>
		<stop  offset="4.012231e-02" style="stop-color:#183903"/>
		<stop  offset="0.1071" style="stop-color:#27530B"/>
		<stop  offset="0.1926" style="stop-color:#3F7D18"/>
		<stop  offset="0.2934" style="stop-color:#60B72A"/>
		<stop  offset="0.4028" style="stop-color:#88FE40"/>
		<stop  offset="0.586" style="stop-color:#83FB3A"/>
		<stop  offset="0.654" style="stop-color:#6CD12E"/>
		<stop  offset="0.7776" style="stop-color:#44891B"/>
		<stop  offset="0.8805" style="stop-color:#27550C"/>
		<stop  offset="0.9576" style="stop-color:#163403"/>
		<stop  offset="1" style="stop-color:#0F2800"/>
	</linearGradient>
	<path class="st0" d="M954.3,391.4l-59,185.6l-59.4,186.9l-126.1,396.9c-14.7,46.2-64.7,71.2-110.5,55.2
		c-35.4-12.4-57.7-45.6-57.7-81.3c0-8.6,1.3-17.4,4.1-26.1l60.7-191L665,733.2l125.2-394C804.8,293,854.8,268,900.6,284
		C944.6,299.4,968.4,347,954.3,391.4z"/>
	
		<linearGradient id="SVGID_00000166655205288957728290000015967008918300810928_" gradientUnits="userSpaceOnUse" x1="349.8725" y1="666.7783" x2="778.9789" y2="419.0336">
		<stop  offset="0" style="stop-color:#77FE26"/>
		<stop  offset="0.2446" style="stop-color:#5AC31C"/>
		<stop  offset="0.6124" style="stop-color:#32700D"/>
		<stop  offset="0.873" style="stop-color:#193C04"/>
		<stop  offset="1" style="stop-color:#0F2800"/>
	</linearGradient>
	<path style="fill:url(#SVGID_00000166655205288957728290000015967008918300810928_);" d="M708.3,420.7L533.8,603
		c-6.1,5.7-11.7,11.6-17,17.7c-52.9,61.7-62.4,142.2-15.5,192.6L352.9,666c-16.7-16.5-25.1-38.1-25.4-59.8c0-0.6,0-1.1,0-1.7v-0.4
		c0-0.6,0-1.2,0-1.8v-0.2c0.5-20.7,8.4-41.4,23.9-57.5l232.6-243c33.7-35.2,89.8-35.4,123.8-0.6
		C740.2,334.3,740.4,387.2,708.3,420.7z"/>
	
		<linearGradient id="SVGID_00000014619510755150077310000004296866509747024049_" gradientUnits="userSpaceOnUse" x1="471.0912" y1="760.3154" x2="664.9973" y2="760.3154">
		<stop  offset="8.524463e-08" style="stop-color:#0F2800"/>
		<stop  offset="0.127" style="stop-color:#193C04"/>
		<stop  offset="0.3876" style="stop-color:#32700D"/>
		<stop  offset="0.7554" style="stop-color:#5AC31C"/>
		<stop  offset="1" style="stop-color:#77FE26"/>
	</linearGradient>
	<path style="fill:url(#SVGID_00000014619510755150077310000004296866509747024049_);" d="M665,733.2l-58.6,184.4L501.4,813.3
		c0,0,0,0-0.1-0.1c-46.8-50.4-37.4-130.8,15.5-192.6c5.2-6.1,10.9-12,17-17.7v0L665,733.2z"/>
	
		<linearGradient id="SVGID_00000036970790480738549350000002247693828754276505_" gradientUnits="userSpaceOnUse" x1="835.9255" y1="738.4632" x2="1032.9458" y2="738.4632">
		<stop  offset="0" style="stop-color:#77FE26"/>
		<stop  offset="0.2446" style="stop-color:#5AC31C"/>
		<stop  offset="0.6124" style="stop-color:#32700D"/>
		<stop  offset="0.873" style="stop-color:#193C04"/>
		<stop  offset="1" style="stop-color:#0F2800"/>
	</linearGradient>
	<path style="fill:url(#SVGID_00000036970790480738549350000002247693828754276505_);" d="M984.7,881.6
		c-5.7,6.4-11.9,12.5-18.5,18.4L835.9,763.9L895.3,577l111.6,116.6c0,0,0.1,0.1,0.1,0.1C1049.8,745,1037.8,822.4,984.7,881.6z"/>
	
		<linearGradient id="SVGID_00000012462797101452834720000000789582843328708248_" gradientUnits="userSpaceOnUse" x1="761.6293" y1="959.2635" x2="1172.5013" y2="959.2635">
		<stop  offset="8.524463e-08" style="stop-color:#0F2800"/>
		<stop  offset="0.127" style="stop-color:#193C04"/>
		<stop  offset="0.3876" style="stop-color:#32700D"/>
		<stop  offset="0.7554" style="stop-color:#5AC31C"/>
		<stop  offset="1" style="stop-color:#77FE26"/>
	</linearGradient>
	<path style="fill:url(#SVGID_00000012462797101452834720000000789582843328708248_);" d="M1172.5,899.7c0,1.2,0,2.3,0,3.4
		c-0.3,21.7-8.8,43.3-25.4,59.8l-238.7,237c-16.8,16.6-38.7,25-60.6,25c-21.2,0-42.4-7.8-59-23.4c-35.5-33.4-36.2-89.5-1.7-123.8
		l179.1-177.8c6.6-5.9,12.8-12,18.5-18.4c53.1-59.1,65.2-136.5,22.3-187.9l141.6,148C1164.2,857.9,1172.1,878.8,1172.5,899.7z"/>
</g>
</svg>
