<?xml version="1.0" standalone="no"?>
<!DOCTYPE svg PUBLIC "-//W3C//DTD SVG 20010904//EN"
 "http://www.w3.org/TR/2001/REC-SVG-20010904/DTD/svg10.dtd">
<svg version="1.0" xmlns="http://www.w3.org/2000/svg"
 width="1080.000000pt" height="1080.000000pt" viewBox="0 0 1080.000000 1080.000000"
 preserveAspectRatio="xMidYMid meet">

<g transform="translate(0.000000,1080.000000) scale(0.100000,-0.100000)"
fill="#000000" stroke="none">
<path d="M0 10305 c0 -490 0 -495 20 -495 33 0 104 -79 119 -131 17 -62 12
-115 -12 -111 -18 3 -23 -13 -7 -23 17 -10 12 -23 -26 -64 -19 -22 -48 -43
-65 -46 l-29 -7 0 -4714 0 -4714 5400 0 5400 0 0 5400 0 5400 -1019 0 -1019 0
-6 -22 c-3 -13 -6 -57 -6 -98 -1 -89 -10 -79 -35 38 l-18 82 -418 0 -419 0 0
-30 c0 -18 -11 -42 -28 -61 -24 -27 -37 -33 -85 -37 -52 -4 -58 -2 -87 26 -27
27 -36 52 -31 90 2 9 -220 12 -1079 12 l-1080 0 0 -27 c0 -16 4 -55 9 -88 10
-59 15 -205 26 -685 3 -129 8 -275 10 -325 15 -285 25 -494 24 -525 -1 -34
-30 97 -124 555 -62 307 -128 822 -126 1003 l0 92 -2644 0 -2645 0 0 -495z
m1589 44 c58 -20 79 -110 33 -145 -26 -21 -89 -17 -112 6 -42 42 -37 113 10
137 31 16 30 16 69 2z m5137 -345 c24 -11 38 -28 50 -60 40 -106 -46 -194
-150 -154 -14 5 -35 24 -46 42 -38 63 -17 147 43 173 42 19 62 18 103 -1z
m3439 -470 c21 -9 39 -29 50 -55 46 -101 -57 -195 -156 -144 -34 18 -49 50
-49 105 0 44 37 96 73 103 41 8 49 7 82 -9z m-3586 -18 c44 -23 176 -148 268
-256 21 -24 61 -69 88 -100 96 -107 173 -196 280 -325 139 -166 411 -478 490
-561 17 -18 127 -142 285 -324 85 -96 188 -213 229 -259 42 -47 100 -112 130
-145 29 -34 72 -81 95 -106 23 -25 98 -108 166 -185 69 -77 152 -169 186 -205
58 -61 112 -122 315 -356 707 -811 762 -873 904 -1024 50 -52 126 -138 170
-191 44 -52 103 -122 132 -155 224 -258 313 -383 313 -441 0 -13 5 -23 10 -23
6 0 10 -38 10 -93 0 -252 -195 -666 -565 -1198 -56 -81 -222 -284 -334 -410
-330 -369 -963 -922 -1321 -1155 -309 -200 -745 -428 -955 -499 -60 -20 -119
-41 -130 -46 -44 -19 -176 -50 -270 -64 -154 -22 -205 -20 -279 14 -70 32 -90
50 -316 291 -80 85 -217 229 -305 320 -88 91 -216 226 -285 300 -69 74 -150
162 -182 195 -47 50 -55 64 -51 87 4 24 2 28 -16 28 -11 0 -21 -4 -21 -9 0 -6
-23 16 -52 47 -29 31 -88 94 -133 140 -70 72 -78 84 -62 93 19 11 23 34 6 44
-5 4 -18 0 -28 -9 -16 -14 -25 -7 -131 99 -101 102 -114 119 -112 145 3 21 -1
30 -11 30 -9 0 -17 -6 -20 -12 -3 -8 -26 8 -61 42 -42 41 -55 59 -50 75 4 14
3 16 -4 6 -7 -10 -32 11 -107 90 -114 121 -1609 1614 -1801 1799 -71 69 -153
145 -182 170 -103 88 -280 313 -313 397 -13 34 -13 113 0 126 5 5 15 6 21 2 8
-5 9 -10 1 -18 -15 -15 -13 -68 4 -91 12 -16 23 -18 76 -13 33 4 75 13 92 21
18 8 75 33 127 56 110 49 273 133 412 213 54 30 100 51 103 46 10 -15 25 -10
25 9 0 12 45 46 143 107 129 81 366 244 460 318 26 20 45 28 62 25 22 -5 24
-2 19 18 -4 13 -2 24 2 24 12 0 344 281 515 435 74 66 256 242 406 392 150
149 275 267 279 262 3 -5 15 -9 26 -9 18 0 20 5 16 38 -3 21 -1 42 6 48 13 12
396 410 475 494 66 69 276 310 362 415 86 105 251 320 316 411 11 17 40 68 64
115 45 87 51 130 28 190 -13 33 -67 59 -126 59 -49 0 -117 -33 -203 -97 -24
-19 -110 -66 -190 -104 -80 -39 -158 -77 -174 -85 -81 -41 -2 16 223 161 134
87 238 141 326 171 39 13 71 23 73 24 1 0 24 -11 51 -24z m-1884 -166 c4 -6
-6 -7 -27 -3 -44 8 -48 13 -10 13 17 0 34 -4 37 -10z m3039 -280 c24 -24 29
-37 29 -76 0 -40 -4 -51 -31 -76 -25 -21 -42 -28 -75 -28 -117 1 -151 159 -43
206 41 18 84 9 120 -26z m-6580 -928 c93 -234 154 -433 201 -652 33 -157 75
-375 75 -392 0 -4 -19 -8 -42 -8 -24 0 -70 -5 -103 -11 -105 -19 -97 -24 -122
71 -136 513 -167 734 -162 1133 2 130 1 238 -3 240 -3 1 -9 25 -13 52 -4 37 7
11 43 -95 27 -80 84 -232 126 -338z m7241 363 c52 -51 21 -145 -48 -145 -43 0
-74 23 -82 61 -19 85 72 143 130 84z m1858 -756 c63 -32 77 -111 28 -160 -40
-39 -109 -41 -146 -4 -19 19 -25 35 -25 70 0 81 74 129 143 94z m-10008 -514
c31 -30 35 -79 6 -70 -21 6 -51 -18 -51 -41 0 -20 -23 -17 -54 7 -19 15 -26
30 -26 55 0 69 76 99 125 49z m1377 -1553 c3 -56 4 -101 2 -100 -1 2 -14 40
-29 85 -26 81 -26 83 -9 113 25 41 31 25 36 -98z m8739 -259 c13 -16 12 -17
-3 -4 -17 13 -22 21 -14 21 2 0 10 -8 17 -17z m-7353 -286 c61 -62 112 -117
112 -124 0 -18 -61 -63 -104 -78 -36 -13 -118 -8 -227 13 -193 37 -372 -61
-459 -251 -16 -37 -44 -97 -61 -134 -24 -54 -49 -86 -120 -156 -112 -109 -130
-146 -137 -277 -5 -111 3 -141 80 -300 52 -106 116 -215 123 -209 4 4 -14 73
-39 154 -20 63 -20 139 -1 250 65 369 364 656 684 655 153 -1 241 -35 466
-180 135 -87 192 -117 283 -150 34 -12 62 -25 62 -28 0 -3 -27 -2 -60 1 -75 6
-156 44 -297 137 -120 79 -222 131 -298 150 -61 15 -205 14 -254 -1 -135 -43
-204 -81 -293 -164 -122 -113 -189 -226 -222 -372 -20 -91 -21 -250 -1 -344
31 -146 165 -434 291 -625 225 -342 618 -755 914 -960 164 -114 390 -226 519
-255 64 -15 100 -29 117 -45 28 -29 44 -30 75 -5 17 13 37 18 69 16 74 -4 211
12 276 34 34 11 97 37 139 58 192 95 344 360 346 604 1 77 4 88 20 92 11 3 19
13 19 22 0 11 -6 15 -19 10 -16 -5 -21 4 -36 67 -34 140 -76 228 -178 371 -73
104 -84 148 -53 221 13 32 18 36 31 26 8 -7 20 -31 26 -54 6 -22 47 -97 92
-166 126 -197 147 -232 161 -280 8 -25 18 -54 22 -65 7 -18 6 -18 -9 -7 -19
16 -57 7 -57 -13 0 -15 36 -29 60 -23 34 7 37 -260 5 -411 -21 -100 -44 -148
-101 -213 -90 -102 -114 -131 -114 -138 0 -14 -35 -85 -92 -185 -69 -121 -132
-189 -213 -225 -71 -33 -113 -30 -210 14 -33 15 -95 32 -137 39 l-77 11 -85
-37 c-113 -49 -179 -62 -211 -41 -14 9 -33 12 -48 9 -16 -4 -43 1 -74 15 -93
42 -178 72 -229 80 -54 9 -217 83 -318 144 -33 20 -64 36 -68 36 -8 0 71 -71
171 -156 20 -17 62 -46 94 -66 32 -20 54 -39 49 -42 -6 -3 -17 -3 -26 0 -9 3
-16 1 -16 -5 0 -6 5 -11 10 -11 6 0 10 -7 10 -15 0 -18 20 -19 53 -4 21 10 41
3 154 -54 165 -83 275 -122 420 -147 198 -34 383 -22 588 38 58 17 206 102
285 163 20 15 45 27 55 26 13 -1 19 4 18 13 -1 8 20 32 47 54 73 57 200 190
270 281 35 46 94 144 136 228 83 167 114 214 174 272 l41 40 25 -30 c30 -37
30 -43 1 -54 -26 -10 -78 -83 -121 -168 -62 -124 -202 -328 -305 -445 -174
-198 -342 -335 -506 -414 -123 -58 -161 -70 -299 -90 -91 -13 -124 -14 -138
-5 -22 14 -31 14 -23 1 9 -14 -43 -13 -166 5 -310 43 -692 215 -964 433 -38
31 -72 58 -75 61 -3 4 -32 28 -65 55 -210 174 -522 517 -701 771 -155 219
-226 338 -330 546 -202 403 -262 705 -214 1061 32 228 163 473 359 668 190
190 358 308 508 356 77 25 184 42 233 37 42 -5 54 -14 158 -116z m7748 -1932
c32 -206 37 -405 18 -685 -17 -252 -32 -557 -39 -790 -3 -102 -8 -194 -10
-205 -2 -11 -4 -55 -4 -97 -1 -43 -5 -78 -9 -78 -5 0 -12 44 -15 98 -4 53 -20
196 -36 317 -39 284 -59 547 -67 865 -8 306 1 408 57 603 21 77 44 169 51 205
l12 67 8 -65 c4 -36 20 -141 34 -235z m-6401 46 c130 -58 153 -241 42 -325
-43 -33 -122 -49 -172 -35 -90 25 -159 139 -136 226 18 64 46 99 102 127 62
30 108 33 164 7z m-3917 -211 c90 -55 56 -190 -48 -190 -33 0 -48 6 -71 29
-24 25 -29 38 -29 78 0 39 5 54 23 70 41 38 77 42 125 13z m1615 -250 c15 -25
56 -89 92 -143 l65 -98 -35 -14 c-68 -29 -147 -16 -198 33 -42 40 -58 76 -58
135 -1 60 12 98 47 145 l26 33 17 -23 c9 -13 29 -43 44 -68z m7845 -1166 c16
-11 22 -25 22 -54 0 -43 -26 -70 -68 -70 -29 0 -72 42 -72 70 0 28 43 70 72
70 13 0 34 -7 46 -16z m-2993 -323 l50 -6 11 -190 c6 -104 19 -278 27 -385 21
-262 25 -323 17 -308 -4 7 -10 32 -14 55 -3 23 -36 162 -72 310 -70 287 -114
489 -114 523 0 17 4 20 22 14 12 -4 45 -9 73 -13z m-6148 -123 c44 -37 34
-117 -19 -144 -39 -20 -92 -11 -113 19 -18 26 -20 87 -2 109 30 39 97 47 134
16z m1862 -52 c29 -16 51 -53 51 -89 0 -42 -12 -67 -31 -67 -21 0 -27 -20 -6
-20 6 0 -1 -12 -16 -25 -33 -29 -90 -33 -124 -10 -27 19 -46 83 -37 122 12 58
17 65 47 84 38 23 78 24 116 5z m3563 -523 c42 -37 9 -123 -47 -123 -33 0 -75
42 -75 75 0 55 79 87 122 48z m1427 -264 c36 -13 61 -53 61 -99 0 -96 -97
-144 -161 -81 -52 52 -32 154 35 181 28 12 28 12 65 -1z"/>
<path d="M6660 9870 c0 -5 5 -10 10 -10 6 0 10 5 10 10 0 6 -4 10 -10 10 -5 0
-10 -4 -10 -10z"/>
<path d="M10050 9440 c0 -5 7 -10 15 -10 8 0 15 5 15 10 0 6 -7 10 -15 10 -8
0 -15 -4 -15 -10z"/>
<path d="M6703 9315 c-7 -20 -5 -22 31 -31 21 -5 27 -4 22 5 -4 6 -11 9 -16 6
-4 -3 -6 4 -3 15 6 24 -24 29 -34 5z"/>
<path d="M6782 9112 c10 -31 28 -95 39 -142 11 -46 31 -116 44 -155 13 -38 32
-104 43 -145 43 -163 106 -296 193 -406 87 -111 94 -118 284 -281 212 -183
292 -259 365 -350 57 -70 132 -208 179 -328 13 -33 29 -73 36 -90 12 -28 48
-142 97 -310 24 -82 47 -152 59 -180 4 -11 14 -40 21 -65 15 -52 105 -223 172
-328 77 -118 153 -207 346 -402 101 -102 206 -214 235 -250 127 -160 225 -383
225 -513 0 -57 -21 -174 -42 -232 -12 -32 -131 -329 -154 -382 -24 -56 -63
-224 -75 -323 -7 -57 -9 -143 -5 -214 8 -153 19 -198 111 -436 100 -261 107
-347 45 -549 -37 -120 -41 -141 -37 -215 2 -44 10 -99 17 -121 6 -22 12 -57
11 -78 -1 -20 2 -37 7 -37 22 0 102 72 301 271 291 292 471 492 668 744 45 57
210 299 276 403 87 137 236 439 277 562 59 177 51 256 -38 382 -44 62 -222
285 -283 353 -15 17 -74 84 -131 150 -58 66 -175 199 -259 295 -85 96 -166
188 -179 204 -106 125 -590 665 -714 796 -34 36 -106 115 -161 175 -54 61
-155 171 -225 245 -69 74 -218 239 -330 365 -113 127 -221 248 -241 270 -43
48 -340 383 -424 479 -33 38 -64 74 -70 80 -5 6 -35 40 -65 76 -30 36 -89 103
-130 150 -42 47 -101 117 -132 155 -248 307 -338 413 -363 427 -8 5 -6 -11 7
-50z"/>
<path d="M6580 9094 c0 -9 7 -14 17 -12 25 5 28 28 4 28 -12 0 -21 -6 -21 -16z"/>
<path d="M6486 9015 c-11 -29 -7 -51 12 -69 18 -15 20 -15 38 5 17 19 17 23 3
47 -17 32 -44 40 -53 17z"/>
<path d="M6689 8706 c16 -19 44 -21 39 -3 -3 6 -15 14 -28 15 -21 3 -22 2 -11
-12z"/>
<path d="M6765 8680 c-3 -5 1 -10 9 -10 9 0 16 5 16 10 0 6 -4 10 -9 10 -6 0
-13 -4 -16 -10z"/>
<path d="M6526 8531 c-4 -5 -2 -12 3 -15 5 -4 12 -2 15 3 4 5 2 12 -3 15 -5 4
-12 2 -15 -3z"/>
<path d="M6200 8477 c0 -13 9 -32 21 -43 17 -16 22 -16 29 -4 14 22 12 35 -8
53 -26 24 -42 21 -42 -6z"/>
<path d="M6570 8445 c0 -8 5 -15 10 -15 6 0 10 7 10 15 0 8 -4 15 -10 15 -5 0
-10 -7 -10 -15z"/>
<path d="M6222 8398 c-14 -14 -16 -35 -3 -42 18 -11 41 6 41 30 0 26 -18 32
-38 12z"/>
<path d="M6322 8258 c3 -7 13 -15 22 -16 12 -3 17 1 14 10 -3 7 -13 15 -22 16
-12 3 -17 -1 -14 -10z"/>
<path d="M6970 8230 c0 -5 5 -10 10 -10 6 0 10 5 10 10 0 6 -4 10 -10 10 -5 0
-10 -4 -10 -10z"/>
<path d="M6696 8164 c-11 -28 -6 -44 13 -44 24 0 45 25 37 45 -7 20 -42 19
-50 -1z"/>
<path d="M6770 8150 c0 -5 5 -10 11 -10 5 0 7 5 4 10 -3 6 -8 10 -11 10 -2 0
-4 -4 -4 -10z"/>
<path d="M5925 8091 c-3 -5 -1 -12 5 -16 12 -7 30 2 30 16 0 12 -27 12 -35 0z"/>
<path d="M7890 8020 c0 -5 5 -10 10 -10 6 0 10 5 10 10 0 6 -4 10 -10 10 -5 0
-10 -4 -10 -10z"/>
<path d="M6962 8004 c-25 -17 -29 -60 -8 -89 13 -18 14 -18 40 8 28 28 32 47
16 78 -13 23 -19 24 -48 3z"/>
<path d="M6000 7990 c0 -5 5 -10 11 -10 5 0 7 5 4 10 -3 6 -8 10 -11 10 -2 0
-4 -4 -4 -10z"/>
<path d="M6185 7870 c-3 -5 -1 -10 4 -10 6 0 11 5 11 10 0 6 -2 10 -4 10 -3 0
-8 -4 -11 -10z"/>
<path d="M7320 7735 c-13 -16 -7 -45 9 -45 10 0 41 39 41 52 0 14 -37 9 -50
-7z"/>
<path d="M6904 7625 c-16 -13 -17 -16 -4 -25 22 -15 80 8 80 31 0 15 -55 10
-76 -6z"/>
<path d="M6200 7621 c0 -11 26 -22 34 -14 3 3 3 10 0 14 -7 12 -34 11 -34 0z"/>
<path d="M7200 7616 c0 -9 5 -16 10 -16 6 0 10 4 10 9 0 6 -4 13 -10 16 -5 3
-10 -1 -10 -9z"/>
<path d="M5842 7611 c-21 -13 -4 -60 24 -67 51 -13 69 23 27 56 -29 22 -32 23
-51 11z"/>
<path d="M5460 7455 c0 -8 7 -15 15 -15 8 0 15 7 15 15 0 8 -7 15 -15 15 -8 0
-15 -7 -15 -15z"/>
<path d="M6510 7434 c0 -8 5 -12 10 -9 6 4 8 11 5 16 -9 14 -15 11 -15 -7z"/>
<path d="M6580 7389 c0 -5 5 -7 10 -4 6 3 10 8 10 11 0 2 -4 4 -10 4 -5 0 -10
-5 -10 -11z"/>
<path d="M7110 7350 c0 -5 5 -10 10 -10 6 0 10 5 10 10 0 6 -4 10 -10 10 -5 0
-10 -4 -10 -10z"/>
<path d="M5910 7299 c0 -5 5 -7 10 -4 6 3 10 8 10 11 0 2 -4 4 -10 4 -5 0 -10
-5 -10 -11z"/>
<path d="M5487 7283 c-15 -14 -7 -43 13 -43 20 0 44 32 33 44 -8 8 -38 8 -46
-1z"/>
<path d="M7330 7245 c0 -8 5 -15 10 -15 6 0 10 7 10 15 0 8 -4 15 -10 15 -5 0
-10 -7 -10 -15z"/>
<path d="M6732 7214 c1 -9 9 -19 16 -22 9 -3 13 2 10 14 -1 9 -9 19 -16 22 -9
3 -13 -2 -10 -14z"/>
<path d="M6612 7179 c-25 -38 -119 -158 -132 -169 -3 -3 -55 -63 -115 -135
-115 -136 -383 -409 -569 -580 -60 -55 -114 -105 -120 -110 -22 -20 -233 -201
-286 -246 -52 -43 -298 -229 -440 -332 -36 -26 -171 -118 -300 -205 -203 -136
-235 -161 -238 -185 -4 -35 25 -82 83 -135 25 -23 94 -97 154 -164 108 -123
206 -227 636 -673 222 -230 367 -385 615 -655 63 -69 147 -159 186 -200 40
-41 92 -97 116 -125 103 -118 251 -264 271 -267 64 -11 229 53 396 154 195
116 499 330 666 469 147 122 408 352 499 439 267 256 647 745 675 869 l8 39
-99 104 c-54 56 -127 136 -161 177 -74 87 -105 124 -302 352 -82 96 -158 183
-169 194 -23 25 -202 236 -236 279 -23 29 -272 318 -295 342 -27 29 -179 197
-231 256 -116 131 -350 374 -432 448 -46 41 -90 81 -97 88 -26 23 -54 13 -83
-29z m102 -36 c45 -58 222 -262 306 -353 48 -52 125 -138 171 -191 46 -52 129
-145 183 -205 55 -60 122 -136 150 -170 28 -33 118 -140 201 -239 82 -98 175
-208 206 -243 37 -42 55 -70 51 -80 -4 -11 -1 -14 10 -9 11 4 32 -15 69 -61
30 -36 104 -123 164 -193 61 -69 132 -153 158 -185 27 -32 88 -100 135 -149
127 -132 120 -114 77 -191 -78 -143 -336 -470 -530 -672 -159 -166 -552 -512
-750 -661 -246 -186 -565 -388 -718 -456 l-88 -39 -78 80 c-43 43 -102 106
-131 139 -29 33 -94 103 -144 156 -171 179 -213 224 -256 274 -58 68 -339 364
-536 565 -89 91 -201 208 -250 260 -187 200 -503 515 -586 585 l-87 73 32 24
c18 13 127 86 242 163 193 127 355 243 557 396 47 36 87 59 102 59 19 0 26 5
26 19 0 10 25 40 58 67 178 150 354 309 522 470 58 55 122 116 143 135 103 94
449 494 525 607 19 28 37 52 39 52 3 0 15 -12 27 -27z"/>
<path d="M6631 7067 c-6 -8 -8 -17 -4 -20 7 -8 33 11 33 24 0 13 -16 11 -29
-4z"/>
<path d="M6325 6700 c3 -5 10 -10 16 -10 5 0 9 5 9 10 0 6 -7 10 -16 10 -8 0
-12 -4 -9 -10z"/>
<path d="M6470 6656 c0 -14 29 -31 38 -22 2 3 2 12 -1 21 -8 19 -37 20 -37 1z"/>
<path d="M6720 6304 c0 -8 5 -12 10 -9 6 3 10 10 10 16 0 5 -4 9 -10 9 -5 0
-10 -7 -10 -16z"/>
<path d="M6830 5975 c0 -8 5 -15 10 -15 6 0 10 7 10 15 0 8 -4 15 -10 15 -5 0
-10 -7 -10 -15z"/>
<path d="M7155 5819 c-10 -15 3 -25 16 -12 7 7 7 13 1 17 -6 3 -14 1 -17 -5z"/>
<path d="M6100 5816 c0 -2 7 -9 15 -16 12 -10 15 -10 15 4 0 9 -7 16 -15 16
-8 0 -15 -2 -15 -4z"/>
<path d="M7430 5796 c0 -8 5 -18 10 -21 6 -3 10 3 10 14 0 12 -4 21 -10 21 -5
0 -10 -6 -10 -14z"/>
<path d="M7451 5754 c-12 -15 -21 -32 -21 -38 0 -6 -19 -20 -43 -31 -23 -11
-65 -44 -94 -74 -71 -74 -112 -154 -128 -252 -12 -80 -12 -81 18 -162 26 -66
43 -93 92 -143 96 -98 176 -113 385 -70 116 23 226 21 280 -6 51 -26 80 -73
80 -129 0 -71 -74 -123 -192 -136 -32 -3 -58 -10 -58 -14 0 -5 -7 -9 -15 -9
-17 0 -20 -21 -5 -36 6 -6 15 -48 20 -95 6 -46 13 -92 16 -101 12 -39 164 -11
304 55 91 43 168 119 208 204 23 49 27 72 27 143 0 107 -23 181 -81 260 -82
112 -174 166 -324 190 -64 10 -92 9 -185 -5 -61 -10 -142 -20 -182 -22 -68 -5
-72 -4 -88 21 -47 71 30 156 141 156 52 0 64 24 71 144 l6 106 -36 15 c-20 8
-55 15 -77 15 -27 0 -40 4 -40 14 0 14 -21 26 -45 26 -7 0 -23 -12 -34 -26z"/>
<path d="M7006 5726 c-19 -30 -20 -56 -4 -91 13 -29 26 -32 44 -7 20 26 17 86
-5 106 -17 16 -19 15 -35 -8z"/>
<path d="M6695 5630 c3 -5 8 -10 11 -10 2 0 4 5 4 10 0 6 -5 10 -11 10 -5 0
-7 -4 -4 -10z"/>
<path d="M6232 5479 c2 -7 10 -15 17 -17 8 -3 12 1 9 9 -2 7 -10 15 -17 17 -8
3 -12 -1 -9 -9z"/>
<path d="M6292 5478 c3 -7 15 -15 27 -16 16 -3 22 1 19 10 -3 7 -15 15 -27 16
-16 3 -22 -1 -19 -10z"/>
<path d="M5210 5440 c0 -5 5 -10 10 -10 6 0 10 5 10 10 0 6 -4 10 -10 10 -5 0
-10 -4 -10 -10z"/>
<path d="M5820 5430 c0 -5 5 -10 10 -10 6 0 10 5 10 10 0 6 -4 10 -10 10 -5 0
-10 -4 -10 -10z"/>
<path d="M5142 5344 c-33 -23 -26 -58 12 -62 29 -4 76 29 76 54 0 26 -55 32
-88 8z"/>
<path d="M5762 5318 c-7 -7 -12 -20 -12 -31 0 -30 34 -16 38 16 4 29 -6 35
-26 15z"/>
<path d="M5540 5274 c0 -8 5 -12 10 -9 6 3 10 10 10 16 0 5 -4 9 -10 9 -5 0
-10 -7 -10 -16z"/>
<path d="M5980 5272 c0 -11 7 -23 16 -26 11 -4 15 0 12 16 -4 28 -28 36 -28
10z"/>
<path d="M5287 5244 c-4 -4 -4 -10 -1 -15 6 -10 34 0 34 12 0 10 -24 12 -33 3z"/>
<path d="M6902 5158 c-48 -46 -91 -90 -96 -100 -10 -20 -2 -29 256 -304 207
-221 266 -293 302 -367 23 -47 26 -59 17 -96 -5 -23 -17 -52 -28 -63 -29 -34
-100 -60 -170 -63 -70 -4 -82 -12 -83 -55 0 -14 -3 -66 -7 -116 -7 -109 -11
-106 125 -105 159 0 277 45 362 138 94 103 128 216 106 348 -25 146 -150 325
-459 659 -101 108 -209 206 -228 206 -6 0 -50 -37 -97 -82z"/>
<path d="M5960 5106 c0 -13 20 -26 41 -26 14 0 1 18 -22 30 -15 8 -19 7 -19
-4z"/>
<path d="M5860 5100 c0 -5 5 -10 10 -10 6 0 10 5 10 10 0 6 -4 10 -10 10 -5 0
-10 -4 -10 -10z"/>
<path d="M4870 4960 c0 -5 5 -10 10 -10 6 0 10 5 10 10 0 6 -4 10 -10 10 -5 0
-10 -4 -10 -10z"/>
<path d="M5785 4759 c-8 -23 -1 -34 14 -24 13 8 15 45 2 45 -5 0 -13 -9 -16
-21z"/>
<path d="M6541 4736 l-24 -13 22 -22 c25 -25 40 -26 66 -7 19 14 19 15 1 35
-22 24 -32 25 -65 7z"/>
<path d="M5220 4731 c0 -11 26 -22 34 -14 3 3 3 10 0 14 -7 12 -34 11 -34 0z"/>
<path d="M6280 4695 c0 -8 5 -15 10 -15 6 0 10 7 10 15 0 8 -4 15 -10 15 -5 0
-10 -7 -10 -15z"/>
<path d="M7035 4690 c3 -5 11 -10 16 -10 6 0 7 5 4 10 -3 6 -11 10 -16 10 -6
0 -7 -4 -4 -10z"/>
<path d="M5447 4683 c-12 -12 -7 -22 8 -17 8 4 15 10 15 15 0 11 -14 12 -23 2z"/>
<path d="M8368 4683 c7 -3 16 -2 19 1 4 3 -2 6 -13 5 -11 0 -14 -3 -6 -6z"/>
<path d="M5120 4669 c0 -5 5 -7 10 -4 6 3 10 8 10 11 0 2 -4 4 -10 4 -5 0 -10
-5 -10 -11z"/>
<path d="M7700 4556 c0 -29 19 -44 30 -25 9 14 -5 49 -20 49 -6 0 -10 -11 -10
-24z"/>
<path d="M6486 4563 c-12 -12 -6 -33 9 -33 8 0 15 6 15 14 0 17 -14 28 -24 19z"/>
<path d="M6560 4485 c0 -16 27 -32 37 -21 7 7 -16 36 -28 36 -5 0 -9 -7 -9
-15z"/>
<path d="M6417 4433 c-4 -3 -7 -11 -7 -17 0 -6 5 -5 12 2 6 6 9 14 7 17 -3 3
-9 2 -12 -2z"/>
<path d="M5965 4350 c-3 -5 -1 -10 4 -10 6 0 11 5 11 10 0 6 -2 10 -4 10 -3 0
-8 -4 -11 -10z"/>
<path d="M7310 4280 c0 -5 7 -10 15 -10 8 0 15 5 15 10 0 6 -7 10 -15 10 -8 0
-15 -4 -15 -10z"/>
<path d="M5475 4260 c-15 -17 -16 -20 -3 -20 19 0 42 26 30 34 -5 3 -17 -3
-27 -14z"/>
<path d="M6216 4251 c-9 -15 23 -36 35 -24 8 8 5 14 -9 22 -12 6 -23 7 -26 2z"/>
<path d="M6640 4240 c0 -5 5 -10 10 -10 6 0 10 5 10 10 0 6 -4 10 -10 10 -5 0
-10 -4 -10 -10z"/>
<path d="M6100 4225 c0 -8 7 -15 15 -15 8 0 15 4 15 9 0 5 -7 11 -15 15 -9 3
-15 0 -15 -9z"/>
<path d="M7944 4209 c-3 -6 -1 -15 7 -19 14 -9 49 5 49 20 0 14 -47 13 -56 -1z"/>
<path d="M5992 4161 c4 -13 18 -16 19 -4 0 4 -5 9 -11 12 -7 2 -11 -2 -8 -8z"/>
<path d="M5639 4081 c-33 -33 -38 -61 -11 -61 22 0 34 9 55 40 37 54 5 69 -44
21z"/>
<path d="M7600 3930 c0 -5 7 -10 15 -10 8 0 15 5 15 10 0 6 -7 10 -15 10 -8 0
-15 -4 -15 -10z"/>
<path d="M7160 3870 c0 -5 5 -10 10 -10 6 0 10 5 10 10 0 6 -4 10 -10 10 -5 0
-10 -4 -10 -10z"/>
<path d="M6945 3850 c3 -5 11 -10 16 -10 6 0 7 5 4 10 -3 6 -11 10 -16 10 -6
0 -7 -4 -4 -10z"/>
<path d="M6150 3826 c0 -8 7 -16 15 -20 9 -3 15 0 15 8 0 8 -7 16 -15 20 -9 3
-15 0 -15 -8z"/>
<path d="M7260 3770 c0 -5 5 -10 10 -10 6 0 10 5 10 10 0 6 -4 10 -10 10 -5 0
-10 -4 -10 -10z"/>
<path d="M7040 3736 c0 -9 5 -16 10 -16 6 0 10 4 10 9 0 6 -4 13 -10 16 -5 3
-10 -1 -10 -9z"/>
<path d="M6870 3721 c0 -5 5 -13 10 -16 6 -3 10 -2 10 4 0 5 -4 13 -10 16 -5
3 -10 2 -10 -4z"/>
<path d="M6730 3400 c0 -15 27 -23 47 -16 15 6 15 8 3 16 -20 13 -50 12 -50 0z"/>
<path d="M7427 7214 c-16 -16 -6 -35 16 -32 12 2 22 10 22 18 0 16 -26 25 -38
14z"/>
<path d="M6380 7193 c0 -10 5 -25 10 -33 7 -12 12 -12 22 -2 9 9 10 17 2 29
-15 24 -34 28 -34 6z"/>
<path d="M5552 7176 c1 -10 8 -17 13 -17 15 1 12 24 -3 29 -9 3 -13 -2 -10
-12z"/>
<path d="M7184 7159 c-3 -6 -2 -15 4 -21 13 -13 32 -2 32 18 0 16 -26 19 -36
3z"/>
<path d="M4770 6990 c0 -5 5 -10 10 -10 6 0 10 5 10 10 0 6 -4 10 -10 10 -5 0
-10 -4 -10 -10z"/>
<path d="M4405 6840 c-3 -5 -4 -14 0 -20 7 -11 55 8 55 22 0 11 -48 10 -55 -2z"/>
<path d="M6275 6821 c-6 -11 9 -23 19 -14 9 9 7 23 -3 23 -6 0 -12 -4 -16 -9z"/>
<path d="M4590 6770 c0 -5 5 -10 10 -10 6 0 10 5 10 10 0 6 -4 10 -10 10 -5 0
-10 -4 -10 -10z"/>
<path d="M7880 6765 c-14 -17 -5 -48 13 -43 14 5 23 58 9 58 -5 0 -15 -7 -22
-15z"/>
<path d="M5448 6718 c-31 -25 -28 -108 3 -108 17 0 48 43 49 67 0 49 -20 66
-52 41z"/>
<path d="M5070 6687 c0 -19 21 -37 42 -37 24 0 23 27 -1 40 -26 14 -41 13 -41
-3z"/>
<path d="M4413 6664 c-8 -21 30 -59 51 -51 19 7 21 38 4 55 -17 17 -48 15 -55
-4z"/>
<path d="M4265 6579 c-4 -6 -5 -13 -2 -16 7 -7 27 6 27 18 0 12 -17 12 -25 -2z"/>
<path d="M8157 6513 c-4 -3 -7 -11 -7 -17 0 -6 5 -5 12 2 6 6 9 14 7 17 -3 3
-9 2 -12 -2z"/>
<path d="M4970 6480 c0 -5 5 -10 10 -10 6 0 10 5 10 10 0 6 -4 10 -10 10 -5 0
-10 -4 -10 -10z"/>
<path d="M5540 6480 c0 -5 5 -10 10 -10 6 0 10 5 10 10 0 6 -4 10 -10 10 -5 0
-10 -4 -10 -10z"/>
<path d="M7920 6460 c0 -5 5 -10 10 -10 6 0 10 5 10 10 0 6 -4 10 -10 10 -5 0
-10 -4 -10 -10z"/>
<path d="M3890 6320 c0 -5 5 -10 11 -10 5 0 7 5 4 10 -3 6 -8 10 -11 10 -2 0
-4 -4 -4 -10z"/>
<path d="M5091 6306 c-15 -17 -4 -46 15 -39 15 6 20 53 5 53 -5 0 -14 -6 -20
-14z"/>
<path d="M4286 6291 c-4 -7 -5 -15 -2 -18 9 -9 19 4 14 18 -4 11 -6 11 -12 0z"/>
<path d="M4925 6277 c-21 -16 -13 -36 13 -34 14 1 17 7 14 24 -5 27 -3 26 -27
10z"/>
<path d="M4180 6205 c-9 -11 -10 -19 -2 -27 14 -14 32 -1 32 23 0 23 -13 25
-30 4z"/>
<path d="M4706 6124 c-19 -19 -21 -44 -3 -44 17 0 40 47 27 55 -4 3 -16 -2
-24 -11z"/>
<path d="M8374 6105 c-23 -35 -15 -60 20 -60 33 0 73 44 63 69 -10 26 -64 20
-83 -9z"/>
<path d="M3330 6061 c0 -57 73 -114 83 -65 4 24 -14 59 -43 81 -25 21 -40 15
-40 -16z"/>
<path d="M3742 5987 c-9 -11 -10 -17 -2 -22 15 -9 23 -1 18 21 -3 15 -4 16
-16 1z"/>
<path d="M4822 5968 c-18 -18 -14 -28 8 -28 11 0 20 6 20 14 0 21 -15 27 -28
14z"/>
<path d="M4726 5924 c-3 -9 -6 -22 -6 -29 0 -23 42 -55 72 -55 25 0 28 3 28
34 0 25 -7 39 -22 50 -29 20 -64 20 -72 0z"/>
<path d="M4960 5930 c0 -5 5 -10 10 -10 6 0 10 5 10 10 0 6 -4 10 -10 10 -5 0
-10 -4 -10 -10z"/>
<path d="M3027 5833 c-20 -19 10 -63 44 -63 22 0 27 38 7 58 -13 13 -41 16
-51 5z"/>
<path d="M8405 5784 c-4 -10 -11 -27 -16 -36 -17 -32 -10 -58 17 -68 19 -7 31
-7 40 1 16 13 9 30 -10 23 -18 -7 -28 34 -13 57 9 14 9 21 0 30 -10 10 -14 8
-18 -7z"/>
<path d="M3332 5748 c-22 -22 -8 -78 20 -78 4 0 15 11 23 24 14 20 14 28 3 45
-15 24 -29 26 -46 9z"/>
<path d="M3790 5630 c0 -5 7 -10 15 -10 8 0 15 5 15 10 0 6 -7 10 -15 10 -8 0
-15 -4 -15 -10z"/>
<path d="M3800 5440 c0 -5 7 -10 15 -10 8 0 15 5 15 10 0 6 -7 10 -15 10 -8 0
-15 -4 -15 -10z"/>
<path d="M8619 5394 c-5 -38 13 -74 38 -74 22 0 12 50 -14 68 -13 8 -24 11
-24 6z"/>
<path d="M4000 5322 c0 -5 7 -16 16 -23 14 -12 16 -11 13 5 -4 20 -29 35 -29
18z"/>
<path d="M8505 5290 c-18 -19 -17 -20 2 -20 11 0 28 9 38 20 18 19 17 20 -2
20 -11 0 -28 -9 -38 -20z"/>
<path d="M8842 5129 c-12 -18 -11 -24 9 -45 32 -34 59 -32 59 4 0 27 -26 62
-46 62 -5 0 -15 -9 -22 -21z"/>
<path d="M3340 5027 c0 -19 21 -37 42 -37 21 0 24 20 6 38 -16 16 -48 15 -48
-1z"/>
<path d="M8805 5020 c-19 -7 -19 -8 -2 -15 10 -4 23 -3 29 3 14 14 -3 21 -27
12z"/>
<path d="M3866 4984 c-17 -16 -22 -54 -8 -54 12 0 42 34 42 48 0 19 -18 23
-34 6z"/>
<path d="M4050 4990 c0 -5 5 -10 10 -10 6 0 10 5 10 10 0 6 -4 10 -10 10 -5 0
-10 -4 -10 -10z"/>
<path d="M4177 4993 c-12 -11 14 -33 39 -33 29 0 31 15 5 30 -23 12 -35 13
-44 3z"/>
<path d="M4415 4990 c-8 -13 4 -32 16 -25 12 8 12 35 0 35 -6 0 -13 -4 -16
-10z"/>
<path d="M4578 4836 c-12 -7 -14 -15 -6 -38 9 -24 15 -28 48 -28 47 0 65 18
45 47 -16 23 -64 34 -87 19z"/>
<path d="M3640 4830 c0 -5 5 -10 11 -10 5 0 7 5 4 10 -3 6 -8 10 -11 10 -2 0
-4 -4 -4 -10z"/>
<path d="M10570 4705 c0 -8 9 -15 20 -15 11 0 20 7 20 15 0 8 -9 15 -20 15
-11 0 -20 -7 -20 -15z"/>
<path d="M3865 4691 c-6 -11 9 -23 19 -14 9 9 7 23 -3 23 -6 0 -12 -4 -16 -9z"/>
<path d="M8910 4655 c-18 -21 -3 -32 16 -13 10 9 12 18 6 22 -5 3 -15 -1 -22
-9z"/>
<path d="M4350 4630 c0 -5 5 -10 11 -10 5 0 7 5 4 10 -3 6 -8 10 -11 10 -2 0
-4 -4 -4 -10z"/>
<path d="M4636 4404 c-10 -27 -7 -54 7 -54 20 0 37 22 37 47 0 27 -34 33 -44
7z"/>
<path d="M3960 4385 c0 -8 9 -15 20 -15 24 0 27 15 4 24 -22 9 -24 8 -24 -9z"/>
<path d="M8205 4190 c-3 -5 -1 -10 4 -10 6 0 11 5 11 10 0 6 -2 10 -4 10 -3 0
-8 -4 -11 -10z"/>
<path d="M8380 4066 c0 -17 38 -41 48 -31 9 9 -13 40 -32 43 -9 2 -16 -3 -16
-12z"/>
<path d="M4717 4052 c-22 -24 -21 -32 2 -32 22 0 45 25 36 40 -9 15 -20 12
-38 -8z"/>
<path d="M4885 4039 c-10 -15 3 -25 16 -12 7 7 7 13 1 17 -6 3 -14 1 -17 -5z"/>
<path d="M4335 4011 c-9 -15 13 -51 31 -51 11 0 14 8 12 27 -3 28 -30 43 -43
24z"/>
<path d="M8650 4010 c0 -5 5 -10 10 -10 6 0 10 5 10 10 0 6 -4 10 -10 10 -5 0
-10 -4 -10 -10z"/>
<path d="M5385 3919 c-9 -29 4 -38 21 -15 18 25 18 36 0 36 -8 0 -18 -9 -21
-21z"/>
<path d="M4940 3900 c0 -5 5 -10 10 -10 6 0 10 5 10 10 0 6 -4 10 -10 10 -5 0
-10 -4 -10 -10z"/>
<path d="M8520 3800 c0 -5 7 -10 15 -10 8 0 15 5 15 10 0 6 -7 10 -15 10 -8 0
-15 -4 -15 -10z"/>
<path d="M4960 3765 c0 -8 7 -15 15 -15 8 0 15 7 15 15 0 8 -7 15 -15 15 -8 0
-15 -7 -15 -15z"/>
<path d="M5390 3770 c0 -5 5 -10 10 -10 6 0 10 5 10 10 0 6 -4 10 -10 10 -5 0
-10 -4 -10 -10z"/>
<path d="M5480 3760 c0 -5 5 -10 10 -10 6 0 10 5 10 10 0 6 -4 10 -10 10 -5 0
-10 -4 -10 -10z"/>
<path d="M5635 3760 c3 -5 10 -10 16 -10 5 0 9 5 9 10 0 6 -7 10 -16 10 -8 0
-12 -4 -9 -10z"/>
<path d="M4802 3688 c-20 -20 -14 -37 15 -44 32 -8 58 6 58 32 0 23 -53 32
-73 12z"/>
<path d="M4860 3631 c0 -14 28 -33 39 -27 16 10 1 36 -20 36 -10 0 -19 -4 -19
-9z"/>
<path d="M5493 3583 c-7 -3 -13 -11 -13 -20 0 -17 41 -14 47 3 4 13 -16 23
-34 17z"/>
<path d="M7736 3575 c-6 -17 2 -45 14 -45 15 0 32 30 26 45 -7 19 -32 19 -40
0z"/>
<path d="M5713 3553 c-21 -7 -15 -33 7 -33 11 0 20 6 20 14 0 18 -11 25 -27
19z"/>
<path d="M8210 3445 c0 -9 5 -15 11 -13 6 2 11 8 11 13 0 5 -5 11 -11 13 -6 2
-11 -4 -11 -13z"/>
<path d="M8800 3330 c0 -5 5 -10 10 -10 6 0 10 5 10 10 0 6 -4 10 -10 10 -5 0
-10 -4 -10 -10z"/>
<path d="M5890 3270 c0 -5 5 -10 10 -10 6 0 10 5 10 10 0 6 -4 10 -10 10 -5 0
-10 -4 -10 -10z"/>
<path d="M7235 3210 c3 -5 15 -10 26 -10 10 0 19 5 19 10 0 6 -12 10 -26 10
-14 0 -23 -4 -19 -10z"/>
<path d="M8747 3169 c-22 -13 -22 -26 2 -34 21 -6 51 3 51 16 0 16 -35 28 -53
18z"/>
<path d="M6198 3149 c-38 -22 -6 -59 33 -39 23 13 25 36 3 44 -19 7 -15 8 -36
-5z"/>
<path d="M8342 3141 c4 -13 18 -16 19 -4 0 4 -5 9 -11 12 -7 2 -11 -2 -8 -8z"/>
<path d="M6070 3109 c0 -5 5 -7 10 -4 6 3 10 8 10 11 0 2 -4 4 -10 4 -5 0 -10
-5 -10 -11z"/>
<path d="M8420 3100 c0 -5 5 -10 10 -10 6 0 10 5 10 10 0 6 -4 10 -10 10 -5 0
-10 -4 -10 -10z"/>
<path d="M7877 3063 c-15 -15 -5 -23 28 -23 24 0 35 5 35 15 0 15 -50 22 -63
8z"/>
<path d="M8900 3019 c0 -5 5 -7 10 -4 6 3 10 8 10 11 0 2 -4 4 -10 4 -5 0 -10
-5 -10 -11z"/>
<path d="M7052 2958 c-17 -17 -15 -28 7 -28 16 0 31 18 31 36 0 9 -27 3 -38
-8z"/>
<path d="M6925 2950 c-4 -7 -3 -16 3 -22 14 -14 57 -6 57 12 0 18 -50 26 -60
10z"/>
<path d="M7080 2908 c-24 -9 -40 -25 -40 -41 0 -15 63 -2 74 15 15 25 -3 38
-34 26z"/>
<path d="M8655 2900 c-3 -5 1 -10 9 -10 9 0 16 5 16 10 0 6 -4 10 -9 10 -6 0
-13 -4 -16 -10z"/>
<path d="M6294 2846 c-9 -24 12 -44 28 -28 10 10 8 16 -5 29 -15 15 -17 15
-23 -1z"/>
<path d="M6540 2824 c0 -17 22 -14 28 4 2 7 -3 12 -12 12 -9 0 -16 -7 -16 -16z"/>
<path d="M7670 2790 c0 -5 5 -10 10 -10 6 0 10 5 10 10 0 6 -4 10 -10 10 -5 0
-10 -4 -10 -10z"/>
<path d="M8120 2789 c0 -5 5 -7 10 -4 6 3 10 8 10 11 0 2 -4 4 -10 4 -5 0 -10
-5 -10 -11z"/>
<path d="M7073 2783 c-7 -2 -13 -9 -13 -15 0 -12 41 -6 41 7 1 12 -11 15 -28
8z"/>
<path d="M7910 2774 c0 -8 5 -12 10 -9 6 3 10 10 10 16 0 5 -4 9 -10 9 -5 0
-10 -7 -10 -16z"/>
<path d="M8617 2724 c-10 -10 -9 -52 2 -58 13 -8 33 20 29 40 -3 19 -20 28
-31 18z"/>
<path d="M7140 2670 c0 -5 5 -10 10 -10 6 0 10 5 10 10 0 6 -4 10 -10 10 -5 0
-10 -4 -10 -10z"/>
<path d="M8270 2655 c0 -8 5 -15 10 -15 6 0 10 7 10 15 0 8 -4 15 -10 15 -5 0
-10 -7 -10 -15z"/>
<path d="M5812 2606 c1 -10 8 -17 13 -17 15 1 12 24 -3 29 -9 3 -13 -2 -10
-12z"/>
<path d="M7880 2570 c0 -5 7 -10 15 -10 8 0 15 5 15 10 0 6 -7 10 -15 10 -8 0
-15 -4 -15 -10z"/>
<path d="M7200 2495 c0 -8 4 -15 10 -15 5 0 7 7 4 15 -4 8 -8 15 -10 15 -2 0
-4 -7 -4 -15z"/>
<path d="M6940 2465 c-10 -12 -9 -16 3 -21 21 -7 48 -2 48 11 1 17 -39 25 -51
10z"/>
<path d="M7740 2465 c0 -16 27 -32 37 -21 7 7 -16 36 -28 36 -5 0 -9 -7 -9
-15z"/>
<path d="M8215 2450 c-3 -5 1 -10 9 -10 9 0 16 5 16 10 0 6 -4 10 -9 10 -6 0
-13 -4 -16 -10z"/>
<path d="M8430 2420 c0 -5 9 -10 20 -10 11 0 20 5 20 10 0 6 -9 10 -20 10 -11
0 -20 -4 -20 -10z"/>
<path d="M6754 2409 c-7 -12 22 -46 32 -37 8 9 -5 48 -16 48 -5 0 -12 -5 -16
-11z"/>
<path d="M6550 2376 c0 -9 5 -16 10 -16 6 0 10 4 10 9 0 6 -4 13 -10 16 -5 3
-10 -1 -10 -9z"/>
<path d="M6148 2303 c-19 -5 -25 -33 -7 -33 19 0 50 21 44 31 -6 9 -9 10 -37
2z"/>
<path d="M7099 2291 c-20 -16 -21 -21 -10 -35 19 -22 54 -20 77 5 18 20 18 21
-1 35 -25 19 -38 18 -66 -5z"/>
<path d="M7320 2295 c0 -8 5 -15 10 -15 6 0 10 7 10 15 0 8 -4 15 -10 15 -5 0
-10 -7 -10 -15z"/>
<path d="M6197 2224 c-10 -11 3 -24 24 -24 10 0 19 7 19 15 0 15 -31 21 -43 9z"/>
<path d="M8230 2220 c0 -5 5 -10 11 -10 5 0 7 5 4 10 -3 6 -8 10 -11 10 -2 0
-4 -4 -4 -10z"/>
<path d="M6440 2200 c0 -5 5 -10 10 -10 6 0 10 5 10 10 0 6 -4 10 -10 10 -5 0
-10 -4 -10 -10z"/>
<path d="M6930 2200 c0 -5 7 -10 15 -10 8 0 15 5 15 10 0 6 -7 10 -15 10 -8 0
-15 -4 -15 -10z"/>
<path d="M6455 2161 c-6 -11 9 -23 19 -14 9 9 7 23 -3 23 -6 0 -12 -4 -16 -9z"/>
<path d="M6240 2139 c0 -14 25 -39 39 -39 6 0 11 5 11 10 0 6 -7 10 -15 10 -8
0 -15 7 -15 15 0 8 -4 15 -10 15 -5 0 -10 -5 -10 -11z"/>
<path d="M7010 2085 c7 -8 16 -15 21 -15 5 0 9 7 9 15 0 9 -9 15 -21 15 -18 0
-19 -2 -9 -15z"/>
<path d="M7880 2085 c0 -8 5 -15 10 -15 6 0 10 7 10 15 0 8 -4 15 -10 15 -5 0
-10 -7 -10 -15z"/>
<path d="M6485 2076 c-15 -11 -17 -18 -9 -26 17 -17 49 -8 49 14 0 25 -16 30
-40 12z"/>
<path d="M6730 2010 c0 -5 5 -10 10 -10 6 0 10 5 10 10 0 6 -4 10 -10 10 -5 0
-10 -4 -10 -10z"/>
<path d="M7324 1935 c-12 -30 36 -105 67 -105 12 0 -9 81 -26 100 -22 24 -34
25 -41 5z"/>
<path d="M8120 1860 c0 -5 5 -10 10 -10 6 0 10 5 10 10 0 6 -4 10 -10 10 -5 0
-10 -4 -10 -10z"/>
<path d="M7087 1813 c-13 -12 -7 -23 13 -23 11 0 20 7 20 15 0 15 -21 21 -33
8z"/>
<path d="M7850 1716 c0 -9 5 -16 10 -16 6 0 10 4 10 9 0 6 -4 13 -10 16 -5 3
-10 -1 -10 -9z"/>
<path d="M1040 8054 c0 -8 5 -12 10 -9 6 3 10 10 10 16 0 5 -4 9 -10 9 -5 0
-10 -7 -10 -16z"/>
<path d="M3010 5070 c0 -5 4 -10 9 -10 6 0 13 5 16 10 3 6 -1 10 -9 10 -9 0
-16 -4 -16 -10z"/>
<path d="M2430 4455 c0 -9 5 -15 11 -13 6 2 11 8 11 13 0 5 -5 11 -11 13 -6 2
-11 -4 -11 -13z"/>
<path d="M2008 4439 c-22 -12 -23 -35 -2 -43 24 -9 38 -7 59 8 16 12 17 16 6
30 -15 18 -38 20 -63 5z"/>
<path d="M1777 4143 c-14 -13 -6 -24 15 -21 27 4 36 28 11 28 -11 0 -23 -3
-26 -7z"/>
<path d="M1915 3760 c4 -6 11 -8 16 -5 14 9 11 15 -7 15 -8 0 -12 -5 -9 -10z"/>
<path d="M1786 3734 c-3 -9 -2 -22 2 -30 7 -13 10 -13 20 -1 12 15 7 47 -8 47
-4 0 -11 -7 -14 -16z"/>
<path d="M1982 3443 c-19 -8 -4 -23 24 -23 16 0 24 5 22 13 -5 13 -26 18 -46
10z"/>
<path d="M2115 3390 c-8 -12 20 -24 35 -15 6 3 8 11 5 16 -8 12 -32 12 -40 -1z"/>
<path d="M2170 3100 c0 -5 5 -10 10 -10 6 0 10 5 10 10 0 6 -4 10 -10 10 -5 0
-10 -4 -10 -10z"/>
<path d="M2260 2720 c0 -5 5 -10 10 -10 6 0 10 5 10 10 0 6 -4 10 -10 10 -5 0
-10 -4 -10 -10z"/>
<path d="M2575 2660 c-8 -13 13 -40 31 -40 21 0 25 17 8 34 -18 19 -30 20 -39
6z"/>
<path d="M2517 2563 c-12 -11 -8 -23 8 -23 8 0 15 7 15 15 0 16 -12 20 -23 8z"/>
<path d="M2580 2560 c0 -5 5 -10 10 -10 6 0 10 5 10 10 0 6 -4 10 -10 10 -5 0
-10 -4 -10 -10z"/>
<path d="M2750 2500 c0 -5 5 -10 10 -10 6 0 10 5 10 10 0 6 -4 10 -10 10 -5 0
-10 -4 -10 -10z"/>
<path d="M5040 2429 c0 -5 5 -7 10 -4 6 3 10 8 10 11 0 2 -4 4 -10 4 -5 0 -10
-5 -10 -11z"/>
<path d="M2600 2415 c0 -8 2 -15 4 -15 2 0 11 -3 20 -6 12 -4 16 0 16 15 0 14
-6 21 -20 21 -11 0 -20 -7 -20 -15z"/>
<path d="M3000 2250 c0 -5 7 -10 15 -10 8 0 15 5 15 10 0 6 -7 10 -15 10 -8 0
-15 -4 -15 -10z"/>
<path d="M2712 2153 c4 -22 38 -30 38 -10 0 8 -7 18 -16 21 -23 9 -26 8 -22
-11z"/>
<path d="M2870 2111 c0 -12 5 -21 10 -21 6 0 10 6 10 14 0 8 -4 18 -10 21 -5
3 -10 -3 -10 -14z"/>
<path d="M4010 1690 c0 -5 5 -10 10 -10 6 0 10 5 10 10 0 6 -4 10 -10 10 -5 0
-10 -4 -10 -10z"/>
<path d="M4090 1660 c0 -5 5 -10 11 -10 5 0 7 5 4 10 -3 6 -8 10 -11 10 -2 0
-4 -4 -4 -10z"/>
<path d="M4255 3210 c-3 -5 -1 -10 4 -10 6 0 11 5 11 10 0 6 -2 10 -4 10 -3 0
-8 -4 -11 -10z"/>
<path d="M4150 3120 c-12 -7 -12 -12 -2 -22 9 -9 15 -9 24 0 16 16 -2 34 -22
22z"/>
<path d="M1940 2755 c12 -15 30 -12 30 6 0 5 -10 9 -21 9 -18 0 -19 -2 -9 -15z"/>
<path d="M2110 2631 c0 -11 4 -21 9 -21 18 0 21 18 6 30 -13 10 -15 9 -15 -9z"/>
<path d="M2545 1020 c3 -5 8 -10 11 -10 2 0 4 5 4 10 0 6 -5 10 -11 10 -5 0
-7 -4 -4 -10z"/>
<path d="M0 9464 c0 -14 3 -14 15 -4 8 7 15 14 15 16 0 2 -7 4 -15 4 -8 0 -15
-7 -15 -16z"/>
</g>
</svg>
