<svg width="400" height="400" viewBox="0 0 400 400" fill="none" xmlns="http://www.w3.org/2000/svg">
<g clip-path="url(#clip0_976_27993)">
<rect x="54" y="78" width="295" height="258" fill="white"/>
<path fill-rule="evenodd" clip-rule="evenodd" d="M87.238 1.58999C77.612 3.20499 62.818 8.51899 53.815 13.596C25.926 29.323 6.60501 56.973 1.47301 88.5C-0.699988 101.85 -0.699988 298.15 1.47301 311.5C8.73001 356.088 44.63 391.868 88.786 398.524C103.09 400.68 296.882 400.693 311 398.539C339.862 394.135 367.039 376.591 382.672 352.273C390.873 339.516 397.209 323.118 398.563 311.142C398.948 307.739 399.654 304.714 400.132 304.419C400.614 304.121 401 257.186 401 198.882C401 139.317 400.622 94.115 400.127 94.422C399.647 94.718 398.941 92.196 398.559 88.816C397.208 76.882 390.862 60.467 382.672 47.727C367.178 23.626 340.306 6.16199 311.5 1.47299C298.601 -0.627008 99.83 -0.523008 87.238 1.58999ZM0.482012 200C0.482012 258.025 0.602012 281.762 0.750012 252.75C0.897012 223.737 0.897012 176.262 0.750012 147.25C0.602012 118.237 0.482012 141.975 0.482012 200ZM106.253 177.707C106.614 244.706 106.388 241.46 111.519 253.477C117.347 267.13 130.224 278.56 146.615 284.63C152.242 286.714 155.876 287.273 166.5 287.689C182.543 288.318 191.06 286.734 202.833 280.93C216.592 274.145 225.861 263.69 231.918 248.12L234.493 241.5L234.795 178.25L235.097 115H227.548H220L219.983 172.75C219.969 219.614 219.689 231.804 218.5 237.418C213.482 261.103 192.306 275.73 166.015 273.672C147.476 272.221 133.551 263.11 125.878 247.411L122.5 240.5L122 178L121.5 115.5L113.708 115.207L105.915 114.914L106.253 177.707ZM280.678 115.655C280.318 116.016 280.023 154.266 280.023 200.655V285H288.011H296V200V115H288.667C284.633 115 281.039 115.295 280.678 115.655Z" fill="black"/>
</g>
<defs>
<clipPath id="clip0_976_27993">
<rect width="400" height="400" fill="white"/>
</clipPath>
</defs>
</svg>
