<?xml version="1.0" standalone="no"?>
<!DOCTYPE svg PUBLIC "-//W3C//DTD SVG 20010904//EN"
 "http://www.w3.org/TR/2001/REC-SVG-20010904/DTD/svg10.dtd">
<svg version="1.0" xmlns="http://www.w3.org/2000/svg"
 width="1200.000000pt" height="630.000000pt" viewBox="0 0 1200.000000 630.000000"
 preserveAspectRatio="xMidYMid meet">

<g transform="translate(0.000000,630.000000) scale(0.100000,-0.100000)"
fill="#000000" stroke="none">
<path d="M0 3150 l0 -3150 6000 0 6000 0 0 3150 0 3150 -2310 0 c-1682 0
-2310 -3 -2310 -11 0 -6 7 -8 16 -5 8 3 12 2 9 -4 -3 -6 0 -10 8 -10 19 0 30
-27 14 -34 -7 -2 -5 -5 4 -5 9 -1 16 -7 15 -15 0 -8 3 -15 8 -15 5 0 14 -10
20 -23 6 -13 21 -27 34 -33 19 -9 24 -18 21 -41 0 -4 4 -10 9 -13 5 -3 16 -20
25 -36 14 -29 14 -32 -8 -53 -12 -12 -28 -22 -34 -22 -6 0 -11 -8 -11 -17 0
-14 -2 -15 -9 -5 -6 11 -9 9 -14 -7 -2 -11 0 -22 7 -24 6 -2 2 -3 -10 -1 -11
2 -30 -3 -41 -11 -11 -8 -23 -11 -27 -8 -3 3 -6 -2 -6 -13 0 -13 -3 -15 -8 -6
-7 9 -13 8 -27 -8 -10 -11 -25 -20 -34 -20 -13 0 -13 -2 -3 -9 11 -7 11 -9 -2
-14 -9 -4 -16 -2 -16 3 0 5 -7 7 -15 4 -8 -4 -12 -10 -9 -15 3 -5 -9 -9 -25
-9 -17 0 -31 -5 -31 -11 0 -5 -4 -8 -9 -5 -5 3 -11 0 -14 -8 -3 -8 -16 -13
-31 -12 -14 2 -31 -3 -38 -11 -9 -11 -13 -11 -19 -1 -7 10 -9 9 -9 -2 0 -10
-9 -16 -22 -16 -47 -1 -73 -10 -89 -28 -8 -10 -27 -19 -42 -18 -15 0 -24 -4
-21 -9 2 -5 -8 -11 -23 -14 -15 -4 -36 -10 -45 -16 -10 -5 -23 -9 -30 -8 -7 0
-4 4 7 9 18 8 17 9 -6 7 -18 -1 -25 -6 -22 -15 4 -9 -2 -12 -21 -8 -17 3 -29
-1 -36 -12 -9 -16 -9 -16 -10 1 0 9 -5 17 -11 17 -5 0 -7 -5 -3 -12 5 -8 0 -9
-14 -6 -12 4 -22 3 -22 -2 0 -4 -19 -8 -42 -8 -38 0 -103 -8 -103 -11 0 -8
-154 -7 -173 0 -17 7 -27 6 -32 -1 -4 -6 -15 -11 -26 -11 -30 -1 -115 10 -125
17 -5 3 -9 0 -9 -7 0 -9 -3 -9 -14 0 -11 9 -17 8 -29 -4 -10 -10 -17 -11 -19
-3 -2 6 -26 11 -53 12 -28 1 -52 4 -55 8 -3 4 -28 10 -55 13 -83 9 -106 16
-99 28 5 9 4 9 -5 1 -7 -7 -21 -9 -32 -7 -16 5 -17 8 -7 22 8 10 4 8 -10 -4
-14 -11 -26 -15 -30 -10 -9 12 -32 12 -51 1 -10 -6 -12 -5 -7 2 4 7 1 12 -6
13 -7 1 -24 2 -38 3 -31 2 -73 16 -80 27 -3 5 -20 9 -38 11 -17 1 -34 9 -37
16 -4 10 -9 11 -18 4 -9 -8 -25 -3 -57 17 -25 15 -51 26 -57 24 -7 -3 -13 0
-13 6 0 6 -11 11 -25 11 -14 0 -25 5 -25 11 0 6 -7 8 -16 5 -8 -3 -12 -2 -9 4
3 6 1 10 -4 10 -6 0 -11 -5 -11 -12 0 -6 -7 -3 -15 8 -8 10 -15 15 -15 10 0
-5 -9 1 -19 13 -11 12 -21 22 -23 21 -8 -4 -58 24 -58 33 0 5 -8 3 -17 -4 -10
-7 -15 -10 -11 -5 8 10 -15 36 -31 36 -6 0 -11 5 -11 11 0 5 -5 7 -10 4 -6 -3
-13 0 -16 9 -3 8 -14 13 -25 11 -12 -3 -19 2 -20 13 0 10 -3 12 -6 5 -3 -10
-10 -10 -24 -2 -11 5 -16 15 -13 21 4 7 3 8 -4 4 -7 -4 -23 4 -37 19 -15 14
-44 34 -66 46 -22 11 -42 26 -46 34 -3 8 -9 13 -13 10 -5 -3 -23 10 -41 29
-18 19 -36 33 -41 30 -4 -3 -8 2 -8 10 0 9 -6 16 -13 16 -7 0 -23 9 -34 19
-12 11 -24 17 -27 14 -3 -4 -6 -1 -6 5 0 7 3 12 8 12 4 0 13 9 20 20 12 19 5
20 -1159 20 l-1171 0 4 -190 3 -191 -37 43 c-20 24 -83 109 -140 190 l-103
147 -1037 0 -1038 1 0 -3150z m2425 3041 c3 -16 13 -35 22 -43 9 -7 24 -31 34
-53 11 -22 34 -65 53 -95 19 -30 32 -58 29 -62 -2 -5 0 -8 5 -8 5 0 15 -13 22
-30 7 -16 16 -30 20 -30 3 0 13 -12 21 -27 13 -27 58 -93 70 -103 3 -3 9 -12
12 -20 7 -14 19 -34 62 -96 11 -16 24 -32 30 -36 5 -4 6 -8 2 -8 -8 0 2 -14
41 -55 12 -13 22 -27 22 -31 0 -7 33 -45 63 -72 9 -9 17 -21 17 -27 0 -5 16
-25 35 -44 20 -19 33 -36 30 -39 -2 -3 16 -24 41 -48 25 -24 42 -44 39 -44 -4
0 18 -25 50 -55 31 -30 54 -55 50 -55 -3 0 11 -15 32 -32 65 -57 92 -87 82
-93 -13 -8 -19 -4 -144 101 -237 198 -515 475 -701 696 l-74 89 0 164 c0 90 3
170 6 179 8 22 21 11 29 -23z m948 -1254 c37 -39 39 -49 5 -23 -21 16 -38 30
-38 32 0 9 22 3 33 -9z m2735 -947 c339 -43 622 -288 723 -626 29 -97 37 -293
16 -396 -54 -261 -213 -474 -447 -601 -36 -19 -84 -41 -107 -48 -69 -20 -73
-11 -73 150 -1 150 -10 212 -41 254 -11 15 -16 27 -12 27 4 0 38 7 74 14 214
46 321 197 307 433 -5 75 -39 170 -68 188 -6 4 -8 37 -4 88 4 57 2 94 -8 122
-13 39 -15 40 -56 38 -26 -1 -70 -16 -120 -43 -78 -40 -79 -40 -133 -28 -69
15 -248 16 -316 0 -51 -11 -53 -11 -130 29 -52 27 -93 41 -123 42 l-45 2 -13
-65 c-9 -47 -10 -77 -2 -112 9 -44 8 -50 -20 -92 -17 -25 -38 -75 -47 -111
-14 -57 -15 -80 -5 -151 27 -201 121 -302 323 -343 l56 -12 -24 -46 c-12 -26
-23 -52 -23 -59 0 -7 -24 -18 -55 -25 -79 -18 -132 5 -194 85 -53 67 -81 85
-133 86 -50 0 -49 -17 5 -62 26 -22 58 -64 80 -106 49 -93 85 -112 210 -112
l87 0 0 -84 c0 -64 -4 -88 -16 -100 -21 -22 -35 -20 -116 14 -202 86 -381 272
-463 480 -76 193 -74 438 5 631 43 106 87 173 174 265 152 162 303 242 514
273 82 12 127 12 220 1z"/>
</g>
</svg>
